<?xml version="1.0" encoding="UTF-8" standalone="no"?>
<svg
   viewBox="0 0 1052.3621875 375"
   version="1.1"
   id="svg12"
   sodipodi:docname="chess_pieces.svg"
   inkscape:version="1.3.2 (091e20e, 2023-11-25, custom)"
   xmlns:inkscape="http://www.inkscape.org/namespaces/inkscape"
   xmlns:sodipodi="http://sodipodi.sourceforge.net/DTD/sodipodi-0.dtd"
   xmlns="http://www.w3.org/2000/svg"
   xmlns:svg="http://www.w3.org/2000/svg">
  <defs
     id="defs12" />
  <sodipodi:namedview
     id="namedview12"
     pagecolor="#ffffff"
     bordercolor="#000000"
     borderopacity="0.25"
     inkscape:showpageshadow="2"
     inkscape:pageopacity="0.0"
     inkscape:pagecheckerboard="0"
     inkscape:deskcolor="#d1d1d1"
     inkscape:zoom="1.9413468"
     inkscape:cx="646.45843"
     inkscape:cy="202.17923"
     inkscape:window-width="2560"
     inkscape:window-height="1417"
     inkscape:window-x="-8"
     inkscape:window-y="-8"
     inkscape:window-maximized="1"
     inkscape:current-layer="pawn" />
  <g
     inkscape:groupmode="layer"
     id="king"
     inkscape:label="king"
     style="display:inline">
    <path
       d="m 111.54,124.05 c 0,1.5492 -1.0758,2.3238 -3.2275,2.3238 -2.4099,0 -3.6148,-0.77459 -3.6148,-2.3238 0,-7.1435 -2.3668,-12.953 -7.1005,-17.428 -4.2173,-3.7869 -8.3054,-5.6804 -12.264,-5.6804 -5.8525,0 -9.5104,2.3238 -10.973,6.9714 l -0.5164,3.4857 v 0.2582 c 0,3.4426 2.539,8.2194 7.6169,14.33 1.3771,1.5492 2.539,2.7541 3.4857,3.6148 1.3771,1.1188 3.6578,1.6783 6.8423,1.6783 3.3566,0 8.7788,-0.6455 16.267,-1.9365 7.5739,1.291 13.039,1.9365 16.396,1.9365 3.2705,0 5.5513,-0.55943 6.8423,-1.6783 3.6148,-3.1845 6.6271,-7.0575 9.037,-11.619 1.3771,-2.582 2.0656,-4.6906 2.0656,-6.3259 0,-5.4222 -2.4529,-8.8218 -7.3587,-10.199 -1.291,-0.34427 -2.6681,-0.51641 -4.1312,-0.51641 -3.959,0 -8.0042,1.9365 -12.135,5.8095 -4.8197,4.3033 -7.2296,10.07 -7.2296,17.299 m 28.015,-12.394 c 0,3.4426 -2.3668,7.4878 -7.1005,12.135 l -3.3566,2.8402 -1.291,0.77458 c -1.6353,0.2582 -3.3566,0.3873 -5.164,0.3873 -5.3361,0 -8.0042,-1.0758 -8.0042,-3.2275 0.17213,-6.6271 2.1517,-11.791 5.9386,-15.492 3.2705,-3.2706 6.6271,-4.9058 10.07,-4.9058 4.3894,0 7.1866,1.5922 8.3915,4.7767 l 0.51641,2.7111 m -12.264,32.791 c 0,-2.2377 -6.3259,-3.3566 -18.978,-3.3566 -3.4427,0 -6.498,0.12909 -9.1661,0.3873 l -3.0984,0.2582 c -4.6476,0.60247 -6.9714,1.4631 -6.9714,2.582 0,1.291 1.1619,1.9365 3.4857,1.9365 l 15.621,-1.291 15.492,1.291 c 2.4098,0 3.6148,-0.60246 3.6148,-1.8074 m 7.2296,3.0984 c -0.17214,5.8525 -8.9509,8.7788 -26.336,8.7788 -17.213,0 -25.949,-2.9263 -26.207,-8.7788 -0.08607,-5.5083 -0.9037,-10.414 -2.4529,-14.717 -0.94673,-2.3238 -2.7541,-5.2931 -5.4222,-8.9079 -3.3566,-4.5615 -5.0349,-8.6067 -5.0349,-12.135 0,-5.5083 2.3668,-9.7686 7.1005,-12.781 2.6681,-1.7213 5.6374,-2.582 8.9079,-2.582 4.4755,0 8.7358,1.6353 12.781,4.9058 0,-3.9591 0.3873,-6.6702 1.1619,-8.1333 0.60246,-1.6353 2.582,-3.6148 5.9386,-5.9386 v -2.9693 l -5.2931,-3.2275 v -4.6476 h 4.7767 l 1.5492,-4.7767 h 4.3894 l 1.6783,4.7767 h 4.6476 v 4.6476 l -5.164,3.2275 v 2.9693 c 3.2705,2.4099 5.2931,4.4755 6.0677,6.1968 l 0.9037,3.7439 c 0.0861,1.0328 0.17214,2.4099 0.2582,4.1312 4.0451,-3.2705 8.2194,-4.9058 12.523,-4.9058 5.7664,0 10.242,2.1947 13.426,6.5841 1.8074,2.582 2.7111,5.5083 2.7111,8.7788 0,3.5287 -1.6783,7.6169 -5.0349,12.264 l -2.9693,4.1312 c -3.1844,4.8197 -4.8197,11.275 -4.9058,19.365 m -57.708,-35.89 c 0,-3.6148 1.8074,-5.9386 5.4222,-6.9714 1.0328,-0.34428 2.1086,-0.51641 3.2275,-0.51641 3.6148,0 7.0575,1.6353 10.328,4.9058 3.7009,3.7869 5.6374,8.9509 5.8095,15.492 0.0861,1.8935 -1.8935,2.9693 -5.9386,3.2275 h -1.9365 c -1.7213,0 -3.4857,-0.1291 -5.2931,-0.3873 -2.8402,-1.3771 -5.6804,-4.0882 -8.5206,-8.1333 -2.0656,-3.0123 -3.0984,-5.5513 -3.0984,-7.6169"
       id="path1"
       style="display:inline" />
  </g>
  <g
     inkscape:groupmode="layer"
     id="queen"
     inkscape:label="queen">
    <path
       d="m254.43 142.89c0 1.3771 0.98976 2.0656 2.9693 2.0656l8.9079-0.6455 7.746-0.3873h1.9365l15.105 0.77461 3.0984 0.25819c1.9794 0 2.9692-0.68853 2.9693-2.0656-1e-4 -2.4959-5.7666-3.873-17.299-4.1312h-4.0021c-9.7256 0-16.224 0.73158-19.494 2.1947-1.291 0.51641-1.9365 1.1619-1.9365 1.9365m-16.137-53.964c-1.6353 0-2.6681 0.81765-3.0984 2.4529-0.08607 0.2582-0.12911 0.51639-0.12911 0.77461 0 1.6353 0.81765 2.6681 2.4529 3.0984 0.25819 0.08607 0.51639 0.12911 0.7746 0.12911 2.0656 0 3.0984-1.0758 3.0984-3.2275s-1.0328-3.2275-3.0984-3.2275m16.912-8.1333c-2.2377 0-3.3566 1.0758-3.3566 3.2275s1.1188 3.2275 3.3566 3.2275c2.0656 0 3.0984-1.0758 3.0984-3.2275s-1.0328-3.2275-3.0984-3.2275m41.183 0c-1.4632 0-2.453 0.73158-2.9693 2.1947l-0.12911 1.0328c-1e-4 2.1517 1.0327 3.2275 3.0984 3.2275 2.1516 0 3.2274-1.0758 3.2275-3.2275s-1.0759-3.2275-3.2275-3.2275m16.783 8.1333c-2.0657 0-3.0985 1.0758-3.0984 3.2275s1.0327 3.2275 3.0984 3.2275c2.1516 0 3.2274-1.0758 3.2275-3.2275-1.3e-4 -1.6353-0.81775-2.6681-2.4529-3.0984-0.2583-0.08607-0.51651-0.12911-0.7746-0.12911m-9.2952 61.71c-1.1e-4 2.4099-4.4325 4.0882-13.297 5.0349l-12.523 0.77458h-2.3238c-10.5 0-18.504-0.90369-24.013-2.7111-2.6681-0.77461-4.0021-1.8074-4.0021-3.0984 0-2.4959 0.68853-5.3361 2.0656-8.5206 0.94673-1.8935 1.4201-3.2275 1.4201-4.0021 0-1.6353-1.9795-4.8198-5.9386-9.5534-2.1517-2.4959-3.3996-4.2173-3.7439-5.164 0-0.51639-0.2582-1.6783-0.77461-3.4857l-1.6783-6.455c-1.1188-4.2173-1.8504-8.6927-2.1947-13.426-3.9591-1.6353-5.9386-4.2603-5.9386-7.8751 0-3.0984 1.4201-5.2931 4.2603-6.5841 0.94673-0.43035 1.9795-0.64552 3.0984-0.64552 2.8402 0 4.9488 1.291 6.3259 3.873 0.60248 1.1188 0.90371 2.2377 0.90371 3.3566l-0.6455 4.9058c0 3.873 2.7541 8.6067 8.2624 14.201 0.43032-3.5287 0.6455-7.2296 0.6455-11.103 0-5.7664-1.0328-9.4243-3.0984-10.973-0.17213-0.17215-0.34428-0.30123-0.51639-0.3873-1.5492-0.94674-2.3238-2.625-2.3238-5.0349 0-3.1845 1.4631-5.3792 4.3894-6.5841 0.94675-0.43033 1.9365-0.6455 2.9693-0.6455 3.0123 0 5.164 1.3771 6.455 4.1312 0.51639 0.94675 0.77448 1.9795 0.7746 3.0984l-0.90371 5.5513c0 4.8197 2.3667 12.178 7.1005 22.076 1.8073-8.0903 2.711-14.287 2.7111-18.59-1e-4 -3.6148-0.64562-6.9284-1.9365-9.9407-0.51652-1.1189-0.77471-1.9795-0.77461-2.582-1e-4 -3.1845 1.42-5.3792 4.2603-6.5841 0.94662-0.43032 1.9364-0.6455 2.9693-0.6455 3.0122 0 5.1208 1.4201 6.3259 4.2603 0.43022 0.94673 0.6454 1.9365 0.6455 2.9693-1e-4 0.17213-0.73167 2.4529-2.1947 6.8423-0.34439 1.1188-0.51651 3.0123-0.51641 5.6804-1e-4 4.3033 0.90359 10.5 2.7111 18.59 4.6475-9.8116 6.9713-17.17 6.9714-22.076l-0.7746-5.4222v-0.12911c-1.2e-4 -3.1845 1.463-5.3792 4.3894-6.5841 0.94662-0.43033 1.9364-0.6455 2.9693-0.6455 3.0122 0 5.1639 1.3771 6.455 4.1312 0.51629 0.94675 0.77449 1.9795 0.77459 3.0984-1e-4 2.4099-0.77471 4.1312-2.3238 5.164-2.41 1.5492-3.6149 5.3361-3.6148 11.361-1e-4 3.7869 0.21505 7.4448 0.6455 10.974 5.5081-5.5943 8.2623-10.328 8.2624-14.201l-0.6455-4.9058c-1e-4 -3.0123 1.377-5.164 4.1312-6.455 0.94662-0.51639 1.9794-0.7746 3.0984-0.7746 3.0983 0 5.293 1.3771 6.5841 4.1312l0.7746 2.4529v0.6455c-1e-4 3.4426-1.9796 6.0677-5.9386 7.8751-0.51651 5.9386-1.9796 13.211-4.3894 21.818-0.17223 0.68854-0.25831 1.2049-0.2582 1.5492-1.1e-4 0.60247-0.64561 1.5922-1.9365 2.9693l-1.5492 1.9365c-4.1313 4.7337-6.1969 8.0042-6.1968 9.8116-1e-4 0.51639 1.0327 3.1845 3.0984 8.0042 0.34417 1.7213 0.51628 3.2275 0.51639 4.5185m-28.015-73.845c-1.6354 0-2.6682 0.81764-3.0984 2.4529-0.08618 0.2582-0.12919 0.51639-0.12908 0.77459-1.1e-4 1.6353 0.81751 2.6681 2.4529 3.0984 0.25809 0.08607 0.51631 0.12911 0.77461 0.12911 2.0655 0 3.0983-1.0758 3.0984-3.2275-1.2e-4 -1.5492-0.73167-2.582-2.1947-3.0984-0.2583-0.08606-0.55953-0.1291-0.90369-0.1291m23.238 50.349c-1e-4 -2.7541-7.7461-4.1312-23.238-4.1312-15.578 0-23.367 1.4201-23.367 4.2603 0 1.2049 1.1188 1.8074 3.3566 1.8074 2.582 0 5.8095-0.21516 9.6825-0.6455l8.3915-0.25819h2.0656c2.4097 0 6.9713 0.21515 13.685 0.6455l6.3259 0.25819c2.0655 0 3.0983-0.6455 3.0984-1.9365"
       id="path2" />
  </g>
  <g
     inkscape:groupmode="layer"
     id="rook"
     inkscape:label="rook">
    <path
       d="m414.87 156.32-2.4529-2.4529v-9.1661l13.039-12.91v-25.691l-10.07-9.9407v-11.49l3.6148-3.6148h9.1661l2.3238 2.1947v3.2275h4.9058v-3.2275l2.1947-2.1947h14.33l2.1947 2.1947v3.2275h4.9058v-3.2275l2.1947-2.1947h9.2952l3.6148 3.6148v11.49l-10.07 9.9407v25.691l13.039 12.91v9.1661l-2.582 2.4529h-59.644m15.234-27.498v4.3894h29.306v-4.3894h-29.306m0-23.238v4.3894h29.306v-4.3894h-29.306"
       id="path3" />
  </g>
  <g
     inkscape:groupmode="layer"
     id="bishop"
     inkscape:label="bishop">
    <path
       d="m605.39 126.5c-4.3895 0-6.5842 0.68853-6.5841 2.0656-1.2e-4 1.2049 1.9364 1.9365 5.8095 2.1947h7.1005c8.6065 0 12.91-0.73158 12.91-2.1947-1.2e-4 -1.3771-2.1948-2.0656-6.5841-2.0656h-12.652m0-8.0042c-3.787 0-5.8957 0.43035-6.3259 1.291-0.17224 0.17215-0.25832 0.43034-0.2582 0.77461-1.2e-4 0.94673 0.90359 1.5062 2.7111 1.6783 2.2376 0.25819 5.6373 0.3873 10.199 0.3873s8.0041-0.12911 10.328-0.3873c1.7212-0.17214 2.5819-0.73157 2.582-1.6783-1.2e-4 -1.3771-2.1948-2.0656-6.5841-2.0656h-12.652m24.013 5.5513 2.582 9.9407c-1e-4 3.0123-3.0555 4.7767-9.1661 5.2931 4.4754 1.7213 8.6496 2.582 12.523 2.582 0.51631 0 3.0553-0.12911 7.6169-0.38731 3.7868 0 6.8852 1.9795 9.2952 5.9386 0.34416 0.68852 0.77451 1.4631 1.291 2.3238l-4.6476 7.1005c-1.3772 1.7213-2.8403 2.8402-4.3894 3.3566-0.34439-1.8074-3.0985-2.9262-8.2624-3.3566l-3.0984-0.25819c-10.586-0.86066-17.73-3.1414-21.431-6.8423-3.3567 3.5287-8.4777 5.5513-15.363 6.0677-1.5492 0.17215-3.5718 0.43034-6.0677 0.77461-6.2829 0.51639-9.9407 1.4201-10.973 2.7111-0.17214 0.25819-0.30125 0.55943-0.38731 0.90369-2.2377-0.94673-4.3464-3.0984-6.3259-6.455-0.77461-1.3771-1.6783-2.7111-2.7111-4.0021 2.3238-4.3033 4.8197-6.8853 7.4878-7.746 0.94676-0.34427 1.9795-0.5164 3.0984-0.5164l7.6169 0.38731c3.959 0 8.1333-0.86068 12.523-2.582-6.1107-0.51639-9.1661-2.2808-9.1661-5.2931 0-0.25819 0.68853-2.4529 2.0656-6.5841 0.43032-1.3771 0.6455-2.3238 0.6455-2.8402-5.2501-6.3689-7.8751-12.006-7.8751-16.912 0-5.6804 2.7972-10.844 8.3915-15.492 4.9918-4.2173 8.6066-6.455 10.844-6.7132-1.8936-2.3238-2.8403-4.7337-2.8402-7.2296-1e-4 -4.0451 2.0225-6.541 6.0677-7.4878 0.94662-0.2581 1.9364-0.38718 2.9693-0.38729 4.3032 1.1e-4 7.1004 1.5922 8.3915 4.7767l0.6455 2.7111v0.3873c-1e-4 2.4099-0.94684 4.8197-2.8402 7.2296 1.6352 0.43033 4.088 1.7644 7.3587 4.0021 7.918 5.5082 11.877 11.576 11.877 18.203-1e-4 4.9919-2.5821 10.457-7.746 16.396m-15.363-12.006v-5.9386h4.5185v-4.9058h-4.5185v-5.5513h-4.6476v5.5513h-4.5185v4.9058h4.5185v5.9386h4.6476m-2.3238-36.406c-1.7214 0-2.7973 0.77458-3.2275 2.3238l-0.12908 0.77458c-1.1e-4 1.6353 0.86055 2.6681 2.582 3.0984 0.25809 0.08607 0.51629 0.12909 0.77461 0.12909 2.1515 0 3.2274-1.0758 3.2275-3.2275-1.1e-4 -2.0656-1.076-3.0984-3.2275-3.0984"
       id="path4" />
  </g>
  <g
     inkscape:groupmode="layer"
     id="knight"
     inkscape:label="knight">
    <path
       d="m758.74 110.36c2.1516 0 4.4324-1.248 6.8423-3.7439 1.291-1.291 1.9365-2.4099 1.9365-3.3566 0-1.1189-1.0328-1.6783-3.0984-1.6783-2.4098 0-4.4324 1.0758-6.0677 3.2275-0.86069 1.0328-1.291 2.1086-1.291 3.2275 0 1.5492 0.55942 2.3238 1.6783 2.3238m-2.1947-28.273c0.17214 0 0.60246-0.04304 1.291-0.12911 3.873 0 8.0042 1.291 12.394 3.873l0.77461 0.51639c2.4959-4.0451 4.3894-6.0677 5.6804-6.0677 2.7541 1.5492 4.5616 3.2275 5.4222 5.0349 0.43034 0.86068 1.0758 2.6681 1.9365 5.4222 0.68853-0.17215 1.3771-0.25819 2.0656-0.25819 7.2296 0 14.115 4.4324 20.656 13.297 7.8321 10.242 11.748 24.185 11.748 41.828 0 3.9591-0.17213 7.5308-0.51639 10.715h-54.48c0.17215-5.7665 2.2808-11.232 6.3259-16.396 0.43034-0.68853 1.0328-1.4631 1.8074-2.3238 3.1845-4.0451 5.121-7.1435 5.8095-9.2952 0.34426-1.1188 0.60246-2.2808 0.7746-3.4857-5.6804 2.2377-9.9407 5.5513-12.781 9.9407-1.291 2.1516-2.7111 4.3894-4.2603 6.7132-0.43034 0.68854-1.0758 1.0328-1.9365 1.0328-2.1517 0-3.2275-1.334-3.2275-4.0021-0.86069 1.1189-1.8504 1.6783-2.9693 1.6783l-2.582-0.6455c-3.7009-0.94675-6.3259-2.582-7.8751-4.9058-0.51639-0.77459-1.0758-1.8074-1.6783-3.0984 0.60248-3.7009 3.5718-11.06 8.9079-22.076 3.873-7.9181 6.2829-13.599 7.2296-17.041 0.08605-0.7746 0.12909-1.8934 0.12909-3.3566 0-1.2049-0.21517-3.5287-0.6455-6.9714m-7.746 45.314c-2.0656 0-3.4427 0.90369-4.1312 2.7111-0.17213 0.43033-0.2582 0.86066-0.2582 1.291 0 0.34426 0.12909 0.7746 0.3873 1.291 2.2377 0 3.6148-0.94673 4.1312-2.8402 0.08608-0.2582 0.12911-0.55945 0.12911-0.9037 0-0.17214-0.08607-0.68853-0.2582-1.5492m63.388 19.881v-4.7767c0-14.029-3.5718-25.519-10.715-34.47-6.1968-7.746-11.834-11.619-16.912-11.619l-1.5492-0.2582c-0.17213 0.08606-0.30124 0.17213-0.38731 0.2582-1.1188 0-1.6783 0.47336-1.6783 1.4201 0 0.34428 0.2582 0.77461 0.77459 1.291 4.6476 0.43032 9.7255 3.7439 15.234 9.9407 6.9714 8.0902 10.457 19.795 10.457 35.115v0.77461c0 3.7869 0.81762 5.6804 2.4529 5.6804 1.3771 0 2.1517-1.1189 2.3238-3.3566"
       id="path5" />
  </g>
  <g
     inkscape:groupmode="layer"
     id="pawn"
     inkscape:label="pawn">
    <path
       d="m 908.23976,156.32 c -0.0908,-1.0328 -0.13629,-3.0554 -0.13629,-6.0677 0,-10.844 3.54392,-18.892 10.63195,-24.142 2.08996,-1.6353 4.63424,-3.1414 7.63304,-4.5185 -3.54392,-1.0328 -5.95199,-3.5718 -7.22413,-7.6169 -0.36348,-1.291 -0.54521,-2.625 -0.54521,-4.0021 0,-5.7665 3.135,-9.8546 9.40499,-12.264 -1.63575,-2.582 -2.45358,-5.0349 -2.45347,-7.3587 -1.2e-4,-3.873 1.99907,-6.7562 5.99739,-8.6497 1.81725,-0.86067 3.7709,-1.291 5.86109,-1.291 4.54332,0 7.90553,1.6783 10.0865,5.0349 0.99945,1.4631 1.49924,3.0984 1.49935,4.9058 -1.1e-4,2.4959 -0.7725,4.9488 -2.31717,7.3587 3.3621,1.291 5.77007,3.0123 7.22411,5.164 1.45386,2.3238 2.18077,4.6906 2.18088,7.1005 -1.5e-4,4.4754 -1.63576,7.8751 -4.90695,10.199 -0.81794,0.68854 -1.72666,1.1619 -2.72608,1.4201 8.35984,4.0451 13.76662,9.3382 16.2203,15.879 1.27204,3.6148 1.90816,7.8751 1.90826,12.781 -10e-5,3.0123 -0.0455,5.0349 -0.13628,6.0677 h -58.20223"
       id="path6"
       style="stroke-width:1.02753" />
  </g>
</svg>
